<svg width="7785" height="536" viewBox="0 0 7785 536" class="keymap" xmlns="http://www.w3.org/2000/svg" xmlns:xlink="http://www.w3.org/1999/xlink">
<style>/* inherit to force styles through use tags */
svg path {
    fill: inherit;
}

/* font and background color specifications */
svg.keymap {
    font-family: SFMono-Regular,Consolas,Liberation Mono,Menlo,monospace;
    font-size: 14px;
    font-kerning: normal;
    text-rendering: optimizeLegibility;
    fill: #24292e;
}

/* default key styling */
rect.key {
    fill: #f6f8fa;
}

rect.key, rect.combo {
    stroke: #c9cccf;
    stroke-width: 1;
}

/* default key side styling, only used is draw_key_sides is set */
rect.side {
    filter: brightness(90%);
}

/* color accent for combo boxes */
rect.combo, rect.combo-separate {
    fill: #cdf;
}

/* color accent for held keys */
rect.held, rect.combo.held {
    fill: #fdd;
}

/* color accent for ghost (optional) keys */
rect.ghost, rect.combo.ghost {
    stroke-dasharray: 4, 4;
    stroke-width: 2;
}

text {
    text-anchor: middle;
    dominant-baseline: middle;
}

/* styling for layer labels */
text.label {
    font-weight: bold;
    text-anchor: start;
    stroke: white;
    stroke-width: 4;
    paint-order: stroke;
}

/* styling for optional footer */
text.footer {
    text-anchor: end;
    dominant-baseline: auto;
    stroke: white;
    stroke-width: 4;
    paint-order: stroke;
}

/* styling for combo tap, and key non-tap label text */
text.combo, text.hold, text.shifted, text.left, text.right, text.tl, text.tr, text.bl, text.br {
    font-size: 11px;
}

text.hold, text.bl, text.br {
    text-anchor: middle;
    dominant-baseline: auto;
}

text.shifted, text.tl, text.tr {
    text-anchor: middle;
    dominant-baseline: hanging;
}

text.left, text.tl, text.bl {
    text-anchor: start;
}

text.right, text.tr, text.br {
    text-anchor: end;
}

text.layer-activator {
    text-decoration: underline;
}

/* styling for hold/shifted label text in combo box */
text.combo.hold, text.combo.shifted, text.combo.left, text.combo.right {
    font-size: 8px;
}

/* lighter symbol for transparent keys */
text.trans {
    fill: #7b7e81;
}

/* styling for combo dendrons */
path.combo {
    stroke-width: 1;
    stroke: gray;
    fill: none;
}

/* Start Tabler Icons Cleanup */
/* cannot use height/width with glyphs */
.icon-tabler > path {
    fill: inherit;
    stroke: inherit;
    stroke-width: 2;
}
/* hide tabler's default box */
.icon-tabler > path[stroke="none"][fill="none"] {
    visibility: hidden;
}
/* End Tabler Icons Cleanup */
</style>
<g transform="translate(30, 0)" class="layer-default">
<text x="0" y="28" class="label" id="default">default:</text>
<g transform="translate(0, 56)">
<g transform="translate(38, 75)" class="key keypos-0">
<rect rx="6" ry="6" x="-36" y="-36" width="71" height="71" class="key"/>
<text x="0" y="0" class="key tap">ESC</text>
</g>
<g transform="translate(112, 66)" class="key keypos-1">
<rect rx="6" ry="6" x="-36" y="-36" width="71" height="71" class="key"/>
<text x="0" y="0" class="key tap">1</text>
</g>
<g transform="translate(188, 47)" class="key keypos-2">
<rect rx="6" ry="6" x="-36" y="-36" width="71" height="71" class="key"/>
<text x="0" y="0" class="key tap">2</text>
</g>
<g transform="translate(262, 38)" class="key keypos-3">
<rect rx="6" ry="6" x="-36" y="-36" width="71" height="71" class="key"/>
<text x="0" y="0" class="key tap">3</text>
</g>
<g transform="translate(338, 47)" class="key keypos-4">
<rect rx="6" ry="6" x="-36" y="-36" width="71" height="71" class="key"/>
<text x="0" y="0" class="key tap">4</text>
</g>
<g transform="translate(412, 56)" class="key keypos-5">
<rect rx="6" ry="6" x="-36" y="-36" width="71" height="71" class="key"/>
<text x="0" y="0" class="key tap">5</text>
</g>
<g transform="translate(825, 56)" class="key keypos-6">
<rect rx="6" ry="6" x="-36" y="-36" width="71" height="71" class="key"/>
<text x="0" y="0" class="key tap">6</text>
</g>
<g transform="translate(900, 47)" class="key keypos-7">
<rect rx="6" ry="6" x="-36" y="-36" width="71" height="71" class="key"/>
<text x="0" y="0" class="key tap">7</text>
</g>
<g transform="translate(975, 38)" class="key keypos-8">
<rect rx="6" ry="6" x="-36" y="-36" width="71" height="71" class="key"/>
<text x="0" y="0" class="key tap">8</text>
</g>
<g transform="translate(1050, 47)" class="key keypos-9">
<rect rx="6" ry="6" x="-36" y="-36" width="71" height="71" class="key"/>
<text x="0" y="0" class="key tap">9</text>
</g>
<g transform="translate(1125, 66)" class="key keypos-10">
<rect rx="6" ry="6" x="-36" y="-36" width="71" height="71" class="key"/>
<text x="0" y="0" class="key tap">0</text>
</g>
<g transform="translate(1200, 75)" class="key keypos-11">
<rect rx="6" ry="6" x="-36" y="-36" width="71" height="71" class="key"/>
<text x="0" y="0" class="key tap">\</text>
</g>
<g transform="translate(38, 150)" class="key keypos-12">
<rect rx="6" ry="6" x="-36" y="-36" width="71" height="71" class="key"/>
<text x="0" y="0" class="key tap">TAB</text>
</g>
<g transform="translate(112, 141)" class="key keypos-13">
<rect rx="6" ry="6" x="-36" y="-36" width="71" height="71" class="key"/>
<text x="0" y="0" class="key tap">Q</text>
</g>
<g transform="translate(188, 122)" class="key keypos-14">
<rect rx="6" ry="6" x="-36" y="-36" width="71" height="71" class="key"/>
<text x="0" y="0" class="key tap">W</text>
</g>
<g transform="translate(262, 112)" class="key keypos-15">
<rect rx="6" ry="6" x="-36" y="-36" width="71" height="71" class="key"/>
<text x="0" y="0" class="key tap">E</text>
</g>
<g transform="translate(338, 122)" class="key keypos-16">
<rect rx="6" ry="6" x="-36" y="-36" width="71" height="71" class="key"/>
<text x="0" y="0" class="key tap">R</text>
</g>
<g transform="translate(412, 131)" class="key keypos-17">
<rect rx="6" ry="6" x="-36" y="-36" width="71" height="71" class="key"/>
<text x="0" y="0" class="key tap">T</text>
</g>
<g transform="translate(825, 131)" class="key keypos-18">
<rect rx="6" ry="6" x="-36" y="-36" width="71" height="71" class="key"/>
<text x="0" y="0" class="key tap">Y</text>
</g>
<g transform="translate(900, 122)" class="key keypos-19">
<rect rx="6" ry="6" x="-36" y="-36" width="71" height="71" class="key"/>
<text x="0" y="0" class="key tap">U</text>
</g>
<g transform="translate(975, 112)" class="key keypos-20">
<rect rx="6" ry="6" x="-36" y="-36" width="71" height="71" class="key"/>
<text x="0" y="0" class="key tap">I</text>
</g>
<g transform="translate(1050, 122)" class="key keypos-21">
<rect rx="6" ry="6" x="-36" y="-36" width="71" height="71" class="key"/>
<text x="0" y="0" class="key tap">O</text>
</g>
<g transform="translate(1125, 141)" class="key keypos-22">
<rect rx="6" ry="6" x="-36" y="-36" width="71" height="71" class="key"/>
<text x="0" y="0" class="key tap">P</text>
</g>
<g transform="translate(1200, 150)" class="key keypos-23">
<rect rx="6" ry="6" x="-36" y="-36" width="71" height="71" class="key"/>
<text x="0" y="0" class="key tap">ENTER</text>
</g>
<g transform="translate(38, 225)" class="key keypos-24">
<rect rx="6" ry="6" x="-36" y="-36" width="71" height="71" class="key"/>
<text x="0" y="0" class="key tap">LSHIFT</text>
</g>
<g transform="translate(112, 216)" class="key keypos-25">
<rect rx="6" ry="6" x="-36" y="-36" width="71" height="71" class="key"/>
<text x="0" y="0" class="key tap">A</text>
</g>
<g transform="translate(188, 197)" class="key keypos-26">
<rect rx="6" ry="6" x="-36" y="-36" width="71" height="71" class="key"/>
<text x="0" y="0" class="key tap">S</text>
</g>
<g transform="translate(262, 188)" class="key keypos-27">
<rect rx="6" ry="6" x="-36" y="-36" width="71" height="71" class="key"/>
<text x="0" y="0" class="key tap">D</text>
</g>
<g transform="translate(338, 197)" class="key keypos-28">
<rect rx="6" ry="6" x="-36" y="-36" width="71" height="71" class="key"/>
<text x="0" y="0" class="key tap">F</text>
</g>
<g transform="translate(412, 206)" class="key keypos-29">
<rect rx="6" ry="6" x="-36" y="-36" width="71" height="71" class="key"/>
<text x="0" y="0" class="key tap">G</text>
</g>
<g transform="translate(825, 206)" class="key keypos-30">
<rect rx="6" ry="6" x="-36" y="-36" width="71" height="71" class="key"/>
<text x="0" y="0" class="key tap">H</text>
</g>
<g transform="translate(900, 197)" class="key keypos-31">
<rect rx="6" ry="6" x="-36" y="-36" width="71" height="71" class="key"/>
<text x="0" y="0" class="key tap">J</text>
</g>
<g transform="translate(975, 188)" class="key keypos-32">
<rect rx="6" ry="6" x="-36" y="-36" width="71" height="71" class="key"/>
<text x="0" y="0" class="key tap">K</text>
</g>
<g transform="translate(1050, 197)" class="key keypos-33">
<rect rx="6" ry="6" x="-36" y="-36" width="71" height="71" class="key"/>
<text x="0" y="0" class="key tap">L</text>
</g>
<g transform="translate(1125, 216)" class="key keypos-34">
<rect rx="6" ry="6" x="-36" y="-36" width="71" height="71" class="key"/>
<text x="0" y="0" class="key tap">;</text>
</g>
<g transform="translate(1200, 225)" class="key keypos-35">
<rect rx="6" ry="6" x="-36" y="-36" width="71" height="71" class="key"/>
<text x="0" y="0" class="key tap">UP</text>
</g>
<g transform="translate(38, 300)" class="key keypos-36">
<rect rx="6" ry="6" x="-36" y="-36" width="71" height="71" class="key"/>
<text x="0" y="0" class="key tap">LCTRL</text>
</g>
<g transform="translate(112, 291)" class="key keypos-37">
<rect rx="6" ry="6" x="-36" y="-36" width="71" height="71" class="key"/>
<text x="0" y="0" class="key tap">Z</text>
</g>
<g transform="translate(188, 272)" class="key keypos-38">
<rect rx="6" ry="6" x="-36" y="-36" width="71" height="71" class="key"/>
<text x="0" y="0" class="key tap">X</text>
</g>
<g transform="translate(262, 262)" class="key keypos-39">
<rect rx="6" ry="6" x="-36" y="-36" width="71" height="71" class="key"/>
<text x="0" y="0" class="key tap">C</text>
</g>
<g transform="translate(338, 272)" class="key keypos-40">
<rect rx="6" ry="6" x="-36" y="-36" width="71" height="71" class="key"/>
<text x="0" y="0" class="key tap">V</text>
</g>
<g transform="translate(412, 281)" class="key keypos-41">
<rect rx="6" ry="6" x="-36" y="-36" width="71" height="71" class="key"/>
<text x="0" y="0" class="key tap">B</text>
</g>
<g transform="translate(488, 244)" class="key keypos-42">
<rect rx="6" ry="6" x="-36" y="-36" width="71" height="71" class="key"/>
<text x="0" y="0" class="key tap">[</text>
</g>
<g transform="translate(750, 244)" class="key keypos-43">
<rect rx="6" ry="6" x="-36" y="-36" width="71" height="71" class="key"/>
<text x="0" y="0" class="key tap">]</text>
</g>
<g transform="translate(825, 281)" class="key keypos-44">
<rect rx="6" ry="6" x="-36" y="-36" width="71" height="71" class="key"/>
<text x="0" y="0" class="key tap">N</text>
</g>
<g transform="translate(900, 272)" class="key keypos-45">
<rect rx="6" ry="6" x="-36" y="-36" width="71" height="71" class="key"/>
<text x="0" y="0" class="key tap">M</text>
</g>
<g transform="translate(975, 262)" class="key keypos-46">
<rect rx="6" ry="6" x="-36" y="-36" width="71" height="71" class="key"/>
<text x="0" y="0" class="key tap">,</text>
</g>
<g transform="translate(1050, 272)" class="key keypos-47">
<rect rx="6" ry="6" x="-36" y="-36" width="71" height="71" class="key"/>
<text x="0" y="0" class="key tap">.</text>
</g>
<g transform="translate(1125, 291)" class="key keypos-48">
<rect rx="6" ry="6" x="-36" y="-36" width="71" height="71" class="key"/>
<text x="0" y="0" class="key tap">/</text>
</g>
<g transform="translate(1200, 300)" class="key keypos-49">
<rect rx="6" ry="6" x="-36" y="-36" width="71" height="71" class="key"/>
<text x="0" y="0" class="key tap">DOWN</text>
</g>
<g transform="translate(225, 347)" class="key keypos-50">
<rect rx="6" ry="6" x="-36" y="-36" width="71" height="71" class="key"/>
<text x="0" y="0" class="key tap">LALT</text>
</g>
<g transform="translate(300, 349)" class="key keypos-51">
<rect rx="6" ry="6" x="-36" y="-36" width="71" height="71" class="key"/>
<text x="0" y="0" class="key tap">LGUI</text>
</g>
<g transform="translate(375, 356)" class="key keypos-52">
<rect rx="6" ry="6" x="-36" y="-36" width="71" height="71" class="key"/>
<a href="#L1">
<text x="0" y="0" class="key tap layer-activator">L1</text>
</a></g>
<g transform="translate(469, 356) rotate(30.0)" class="key keypos-53">
<rect rx="6" ry="6" x="-36" y="-54" width="71" height="108" class="key"/>
<text x="0" y="0" class="key tap">SPACE</text>
</g>
<g transform="translate(769, 356) rotate(-30.0)" class="key keypos-54">
<rect rx="6" ry="6" x="-36" y="-54" width="71" height="108" class="key"/>
<text x="0" y="0" class="key tap">BSPC</text>
</g>
<g transform="translate(862, 356)" class="key keypos-55">
<rect rx="6" ry="6" x="-36" y="-36" width="71" height="71" class="key"/>
<a href="#L2">
<text x="0" y="0" class="key tap layer-activator">L2</text>
</a></g>
<g transform="translate(938, 349)" class="key keypos-56">
<rect rx="6" ry="6" x="-36" y="-36" width="71" height="71" class="key"/>
<text x="0" y="0" class="key tap">LEFT</text>
</g>
<g transform="translate(1012, 349)" class="key keypos-57">
<rect rx="6" ry="6" x="-36" y="-36" width="71" height="71" class="key"/>
<text x="0" y="0" class="key tap">RIGHT</text>
</g>
</g>
</g>
<g transform="translate(1328, 0)" class="layer-L1">
<text x="0" y="28" class="label" id="L1">L1:</text>
<g transform="translate(0, 56)">
<g transform="translate(38, 75)" class="key keypos-0">
<rect rx="6" ry="6" x="-36" y="-36" width="71" height="71" class="key"/>
<text x="0" y="0" class="key tap">`</text>
</g>
<g transform="translate(112, 66)" class="key keypos-1">
<rect rx="6" ry="6" x="-36" y="-36" width="71" height="71" class="key"/>
<text x="0" y="0" class="key tap">F1</text>
</g>
<g transform="translate(188, 47)" class="key keypos-2">
<rect rx="6" ry="6" x="-36" y="-36" width="71" height="71" class="key"/>
<text x="0" y="0" class="key tap">F2</text>
</g>
<g transform="translate(262, 38)" class="key keypos-3">
<rect rx="6" ry="6" x="-36" y="-36" width="71" height="71" class="key"/>
<text x="0" y="0" class="key tap">F3</text>
</g>
<g transform="translate(338, 47)" class="key keypos-4">
<rect rx="6" ry="6" x="-36" y="-36" width="71" height="71" class="key"/>
<text x="0" y="0" class="key tap">F4</text>
</g>
<g transform="translate(412, 56)" class="key keypos-5">
<rect rx="6" ry="6" x="-36" y="-36" width="71" height="71" class="key"/>
<text x="0" y="0" class="key tap">F5</text>
</g>
<g transform="translate(825, 56)" class="key keypos-6">
<rect rx="6" ry="6" x="-36" y="-36" width="71" height="71" class="key"/>
<text x="0" y="0" class="key tap">F6</text>
</g>
<g transform="translate(900, 47)" class="key keypos-7">
<rect rx="6" ry="6" x="-36" y="-36" width="71" height="71" class="key"/>
<text x="0" y="0" class="key tap">F7</text>
</g>
<g transform="translate(975, 38)" class="key keypos-8">
<rect rx="6" ry="6" x="-36" y="-36" width="71" height="71" class="key"/>
<text x="0" y="0" class="key tap">F8</text>
</g>
<g transform="translate(1050, 47)" class="key keypos-9">
<rect rx="6" ry="6" x="-36" y="-36" width="71" height="71" class="key"/>
<text x="0" y="0" class="key tap">F9</text>
</g>
<g transform="translate(1125, 66)" class="key keypos-10">
<rect rx="6" ry="6" x="-36" y="-36" width="71" height="71" class="key"/>
<text x="0" y="0" class="key tap">F10</text>
</g>
<g transform="translate(1200, 75)" class="key trans keypos-11">
<rect rx="6" ry="6" x="-36" y="-36" width="71" height="71" class="key trans"/>
<text x="0" y="0" class="key trans tap">▽</text>
</g>
<g transform="translate(38, 150)" class="key trans keypos-12">
<rect rx="6" ry="6" x="-36" y="-36" width="71" height="71" class="key trans"/>
<text x="0" y="0" class="key trans tap">▽</text>
</g>
<g transform="translate(112, 141)" class="key trans keypos-13">
<rect rx="6" ry="6" x="-36" y="-36" width="71" height="71" class="key trans"/>
<text x="0" y="0" class="key trans tap">▽</text>
</g>
<g transform="translate(188, 122)" class="key trans keypos-14">
<rect rx="6" ry="6" x="-36" y="-36" width="71" height="71" class="key trans"/>
<text x="0" y="0" class="key trans tap">▽</text>
</g>
<g transform="translate(262, 112)" class="key trans keypos-15">
<rect rx="6" ry="6" x="-36" y="-36" width="71" height="71" class="key trans"/>
<text x="0" y="0" class="key trans tap">▽</text>
</g>
<g transform="translate(338, 122)" class="key trans keypos-16">
<rect rx="6" ry="6" x="-36" y="-36" width="71" height="71" class="key trans"/>
<text x="0" y="0" class="key trans tap">▽</text>
</g>
<g transform="translate(412, 131)" class="key trans keypos-17">
<rect rx="6" ry="6" x="-36" y="-36" width="71" height="71" class="key trans"/>
<text x="0" y="0" class="key trans tap">▽</text>
</g>
<g transform="translate(825, 131)" class="key keypos-18">
<rect rx="6" ry="6" x="-36" y="-36" width="71" height="71" class="key"/>
<text x="0" y="0" class="key tap">F11</text>
</g>
<g transform="translate(900, 122)" class="key keypos-19">
<rect rx="6" ry="6" x="-36" y="-36" width="71" height="71" class="key"/>
<text x="0" y="0" class="key tap">F12</text>
</g>
<g transform="translate(975, 112)" class="key keypos-20">
<rect rx="6" ry="6" x="-36" y="-36" width="71" height="71" class="key"/>
<text x="0" y="0" class="key tap">(</text>
</g>
<g transform="translate(1050, 122)" class="key keypos-21">
<rect rx="6" ry="6" x="-36" y="-36" width="71" height="71" class="key"/>
<text x="0" y="0" class="key tap">)</text>
</g>
<g transform="translate(1125, 141)" class="key keypos-22">
<rect rx="6" ry="6" x="-36" y="-36" width="71" height="71" class="key"/>
<text x="0" y="0" class="key tap">-</text>
</g>
<g transform="translate(1200, 150)" class="key keypos-23">
<rect rx="6" ry="6" x="-36" y="-36" width="71" height="71" class="key"/>
<text x="0" y="0" class="key tap">=</text>
</g>
<g transform="translate(38, 225)" class="key keypos-24">
<rect rx="6" ry="6" x="-36" y="-36" width="71" height="71" class="key"/>
<text x="0" y="0" class="key tap">
<tspan x="0" dy="-0.6em">LEFT</tspan><tspan x="0" dy="1.2em">SHIFT</tspan>
</text>
</g>
<g transform="translate(112, 216)" class="key keypos-25">
<rect rx="6" ry="6" x="-36" y="-36" width="71" height="71" class="key"/>
<text x="0" y="0" class="key tap">PREV</text>
</g>
<g transform="translate(188, 197)" class="key keypos-26">
<rect rx="6" ry="6" x="-36" y="-36" width="71" height="71" class="key"/>
<text x="0" y="0" class="key tap">NEXT</text>
</g>
<g transform="translate(262, 188)" class="key trans keypos-27">
<rect rx="6" ry="6" x="-36" y="-36" width="71" height="71" class="key trans"/>
<text x="0" y="0" class="key trans tap">▽</text>
</g>
<g transform="translate(338, 197)" class="key trans keypos-28">
<rect rx="6" ry="6" x="-36" y="-36" width="71" height="71" class="key trans"/>
<text x="0" y="0" class="key trans tap">▽</text>
</g>
<g transform="translate(412, 206)" class="key trans keypos-29">
<rect rx="6" ry="6" x="-36" y="-36" width="71" height="71" class="key trans"/>
<text x="0" y="0" class="key trans tap">▽</text>
</g>
<g transform="translate(825, 206)" class="key trans keypos-30">
<rect rx="6" ry="6" x="-36" y="-36" width="71" height="71" class="key trans"/>
<text x="0" y="0" class="key trans tap">▽</text>
</g>
<g transform="translate(900, 197)" class="key trans keypos-31">
<rect rx="6" ry="6" x="-36" y="-36" width="71" height="71" class="key trans"/>
<text x="0" y="0" class="key trans tap">▽</text>
</g>
<g transform="translate(975, 188)" class="key trans keypos-32">
<rect rx="6" ry="6" x="-36" y="-36" width="71" height="71" class="key trans"/>
<text x="0" y="0" class="key trans tap">▽</text>
</g>
<g transform="translate(1050, 197)" class="key trans keypos-33">
<rect rx="6" ry="6" x="-36" y="-36" width="71" height="71" class="key trans"/>
<text x="0" y="0" class="key trans tap">▽</text>
</g>
<g transform="translate(1125, 216)" class="key keypos-34">
<rect rx="6" ry="6" x="-36" y="-36" width="71" height="71" class="key"/>
<text x="0" y="0" class="key tap">&#x27;</text>
</g>
<g transform="translate(1200, 225)" class="key keypos-35">
<rect rx="6" ry="6" x="-36" y="-36" width="71" height="71" class="key"/>
<text x="0" y="0" class="key tap">
<tspan x="0" dy="-0.6em">PAGE</tspan><tspan x="0" dy="1.2em">UP</tspan>
</text>
</g>
<g transform="translate(38, 300)" class="key keypos-36">
<rect rx="6" ry="6" x="-36" y="-36" width="71" height="71" class="key"/>
<text x="0" y="0" class="key tap">LCTRL</text>
</g>
<g transform="translate(112, 291)" class="key keypos-37">
<rect rx="6" ry="6" x="-36" y="-36" width="71" height="71" class="key"/>
<text x="0" y="0" class="key tap">PP</text>
</g>
<g transform="translate(188, 272)" class="key keypos-38">
<rect rx="6" ry="6" x="-36" y="-36" width="71" height="71" class="key"/>
<text x="0" y="0" class="key tap">MUTE</text>
</g>
<g transform="translate(262, 262)" class="key keypos-39">
<rect rx="6" ry="6" x="-36" y="-36" width="71" height="71" class="key"/>
<text x="0" y="0" class="key tap">
<tspan x="0" dy="-0.6em">VOL</tspan><tspan x="0" dy="1.2em">DN</tspan>
</text>
</g>
<g transform="translate(338, 272)" class="key keypos-40">
<rect rx="6" ry="6" x="-36" y="-36" width="71" height="71" class="key"/>
<text x="0" y="0" class="key tap">
<tspan x="0" dy="-0.6em">VOL</tspan><tspan x="0" dy="1.2em">UP</tspan>
</text>
</g>
<g transform="translate(412, 281)" class="key trans keypos-41">
<rect rx="6" ry="6" x="-36" y="-36" width="71" height="71" class="key trans"/>
<text x="0" y="0" class="key trans tap">▽</text>
</g>
<g transform="translate(488, 244)" class="key trans keypos-42">
<rect rx="6" ry="6" x="-36" y="-36" width="71" height="71" class="key trans"/>
<text x="0" y="0" class="key trans tap">▽</text>
</g>
<g transform="translate(750, 244)" class="key trans keypos-43">
<rect rx="6" ry="6" x="-36" y="-36" width="71" height="71" class="key trans"/>
<text x="0" y="0" class="key trans tap">▽</text>
</g>
<g transform="translate(825, 281)" class="key trans keypos-44">
<rect rx="6" ry="6" x="-36" y="-36" width="71" height="71" class="key trans"/>
<text x="0" y="0" class="key trans tap">▽</text>
</g>
<g transform="translate(900, 272)" class="key trans keypos-45">
<rect rx="6" ry="6" x="-36" y="-36" width="71" height="71" class="key trans"/>
<text x="0" y="0" class="key trans tap">▽</text>
</g>
<g transform="translate(975, 262)" class="key trans keypos-46">
<rect rx="6" ry="6" x="-36" y="-36" width="71" height="71" class="key trans"/>
<text x="0" y="0" class="key trans tap">▽</text>
</g>
<g transform="translate(1050, 272)" class="key trans keypos-47">
<rect rx="6" ry="6" x="-36" y="-36" width="71" height="71" class="key trans"/>
<text x="0" y="0" class="key trans tap">▽</text>
</g>
<g transform="translate(1125, 291)" class="key trans keypos-48">
<rect rx="6" ry="6" x="-36" y="-36" width="71" height="71" class="key trans"/>
<text x="0" y="0" class="key trans tap">▽</text>
</g>
<g transform="translate(1200, 300)" class="key keypos-49">
<rect rx="6" ry="6" x="-36" y="-36" width="71" height="71" class="key"/>
<text x="0" y="0" class="key tap">
<tspan x="0" dy="-0.6em">PAGE</tspan><tspan x="0" dy="1.2em">DOWN</tspan>
</text>
</g>
<g transform="translate(225, 347)" class="key trans keypos-50">
<rect rx="6" ry="6" x="-36" y="-36" width="71" height="71" class="key trans"/>
<text x="0" y="0" class="key trans tap">▽</text>
</g>
<g transform="translate(300, 349)" class="key trans keypos-51">
<rect rx="6" ry="6" x="-36" y="-36" width="71" height="71" class="key trans"/>
<text x="0" y="0" class="key trans tap">▽</text>
</g>
<g transform="translate(375, 356)" class="key held keypos-52">
<rect rx="6" ry="6" x="-36" y="-36" width="71" height="71" class="key held"/>
</g>
<g transform="translate(469, 356) rotate(30.0)" class="key trans keypos-53">
<rect rx="6" ry="6" x="-36" y="-54" width="71" height="108" class="key trans"/>
<text x="0" y="0" class="key trans tap">▽</text>
</g>
<g transform="translate(769, 356) rotate(-30.0)" class="key keypos-54">
<rect rx="6" ry="6" x="-36" y="-54" width="71" height="108" class="key"/>
<text x="0" y="0" class="key tap">DEL</text>
</g>
<g transform="translate(862, 356)" class="key trans keypos-55">
<rect rx="6" ry="6" x="-36" y="-36" width="71" height="71" class="key trans"/>
<text x="0" y="0" class="key trans tap">▽</text>
</g>
<g transform="translate(938, 349)" class="key trans keypos-56">
<rect rx="6" ry="6" x="-36" y="-36" width="71" height="71" class="key trans"/>
<text x="0" y="0" class="key trans tap">▽</text>
</g>
<g transform="translate(1012, 349)" class="key trans keypos-57">
<rect rx="6" ry="6" x="-36" y="-36" width="71" height="71" class="key trans"/>
<text x="0" y="0" class="key trans tap">▽</text>
</g>
</g>
</g>
<g transform="translate(2625, 0)" class="layer-L2">
<text x="0" y="28" class="label" id="L2">L2:</text>
<g transform="translate(0, 56)">
<g transform="translate(38, 75)" class="key keypos-0">
<rect rx="6" ry="6" x="-36" y="-36" width="71" height="71" class="key"/>
<text x="0" y="0" class="key tap">
<tspan x="0" dy="-0.6em">BT</tspan><tspan x="0" dy="1.2em">CLR</tspan>
</text>
</g>
<g transform="translate(112, 66)" class="key keypos-1">
<rect rx="6" ry="6" x="-36" y="-36" width="71" height="71" class="key"/>
<text x="0" y="0" class="key tap">F1</text>
</g>
<g transform="translate(188, 47)" class="key keypos-2">
<rect rx="6" ry="6" x="-36" y="-36" width="71" height="71" class="key"/>
<text x="0" y="0" class="key tap">F2</text>
</g>
<g transform="translate(262, 38)" class="key keypos-3">
<rect rx="6" ry="6" x="-36" y="-36" width="71" height="71" class="key"/>
<text x="0" y="0" class="key tap">F3</text>
</g>
<g transform="translate(338, 47)" class="key keypos-4">
<rect rx="6" ry="6" x="-36" y="-36" width="71" height="71" class="key"/>
<text x="0" y="0" class="key tap">F4</text>
</g>
<g transform="translate(412, 56)" class="key keypos-5">
<rect rx="6" ry="6" x="-36" y="-36" width="71" height="71" class="key"/>
<text x="0" y="0" class="key tap">F5</text>
</g>
<g transform="translate(825, 56)" class="key trans keypos-6">
<rect rx="6" ry="6" x="-36" y="-36" width="71" height="71" class="key trans"/>
<text x="0" y="0" class="key trans tap">▽</text>
</g>
<g transform="translate(900, 47)" class="key trans keypos-7">
<rect rx="6" ry="6" x="-36" y="-36" width="71" height="71" class="key trans"/>
<text x="0" y="0" class="key trans tap">▽</text>
</g>
<g transform="translate(975, 38)" class="key trans keypos-8">
<rect rx="6" ry="6" x="-36" y="-36" width="71" height="71" class="key trans"/>
<text x="0" y="0" class="key trans tap">▽</text>
</g>
<g transform="translate(1050, 47)" class="key trans keypos-9">
<rect rx="6" ry="6" x="-36" y="-36" width="71" height="71" class="key trans"/>
<text x="0" y="0" class="key trans tap">▽</text>
</g>
<g transform="translate(1125, 66)" class="key trans keypos-10">
<rect rx="6" ry="6" x="-36" y="-36" width="71" height="71" class="key trans"/>
<text x="0" y="0" class="key trans tap">▽</text>
</g>
<g transform="translate(1200, 75)" class="key trans keypos-11">
<rect rx="6" ry="6" x="-36" y="-36" width="71" height="71" class="key trans"/>
<text x="0" y="0" class="key trans tap">▽</text>
</g>
<g transform="translate(38, 150)" class="key trans keypos-12">
<rect rx="6" ry="6" x="-36" y="-36" width="71" height="71" class="key trans"/>
<text x="0" y="0" class="key trans tap">▽</text>
</g>
<g transform="translate(112, 141)" class="key trans keypos-13">
<rect rx="6" ry="6" x="-36" y="-36" width="71" height="71" class="key trans"/>
<text x="0" y="0" class="key trans tap">▽</text>
</g>
<g transform="translate(188, 122)" class="key trans keypos-14">
<rect rx="6" ry="6" x="-36" y="-36" width="71" height="71" class="key trans"/>
<text x="0" y="0" class="key trans tap">▽</text>
</g>
<g transform="translate(262, 112)" class="key trans keypos-15">
<rect rx="6" ry="6" x="-36" y="-36" width="71" height="71" class="key trans"/>
<text x="0" y="0" class="key trans tap">▽</text>
</g>
<g transform="translate(338, 122)" class="key trans keypos-16">
<rect rx="6" ry="6" x="-36" y="-36" width="71" height="71" class="key trans"/>
<text x="0" y="0" class="key trans tap">▽</text>
</g>
<g transform="translate(412, 131)" class="key trans keypos-17">
<rect rx="6" ry="6" x="-36" y="-36" width="71" height="71" class="key trans"/>
<text x="0" y="0" class="key trans tap">▽</text>
</g>
<g transform="translate(825, 131)" class="key trans keypos-18">
<rect rx="6" ry="6" x="-36" y="-36" width="71" height="71" class="key trans"/>
<text x="0" y="0" class="key trans tap">▽</text>
</g>
<g transform="translate(900, 122)" class="key trans keypos-19">
<rect rx="6" ry="6" x="-36" y="-36" width="71" height="71" class="key trans"/>
<text x="0" y="0" class="key trans tap">▽</text>
</g>
<g transform="translate(975, 112)" class="key trans keypos-20">
<rect rx="6" ry="6" x="-36" y="-36" width="71" height="71" class="key trans"/>
<text x="0" y="0" class="key trans tap">▽</text>
</g>
<g transform="translate(1050, 122)" class="key trans keypos-21">
<rect rx="6" ry="6" x="-36" y="-36" width="71" height="71" class="key trans"/>
<text x="0" y="0" class="key trans tap">▽</text>
</g>
<g transform="translate(1125, 141)" class="key trans keypos-22">
<rect rx="6" ry="6" x="-36" y="-36" width="71" height="71" class="key trans"/>
<text x="0" y="0" class="key trans tap">▽</text>
</g>
<g transform="translate(1200, 150)" class="key trans keypos-23">
<rect rx="6" ry="6" x="-36" y="-36" width="71" height="71" class="key trans"/>
<text x="0" y="0" class="key trans tap">▽</text>
</g>
<g transform="translate(38, 225)" class="key trans keypos-24">
<rect rx="6" ry="6" x="-36" y="-36" width="71" height="71" class="key trans"/>
<text x="0" y="0" class="key trans tap">▽</text>
</g>
<g transform="translate(112, 216)" class="key trans keypos-25">
<rect rx="6" ry="6" x="-36" y="-36" width="71" height="71" class="key trans"/>
<text x="0" y="0" class="key trans tap">▽</text>
</g>
<g transform="translate(188, 197)" class="key trans keypos-26">
<rect rx="6" ry="6" x="-36" y="-36" width="71" height="71" class="key trans"/>
<text x="0" y="0" class="key trans tap">▽</text>
</g>
<g transform="translate(262, 188)" class="key trans keypos-27">
<rect rx="6" ry="6" x="-36" y="-36" width="71" height="71" class="key trans"/>
<text x="0" y="0" class="key trans tap">▽</text>
</g>
<g transform="translate(338, 197)" class="key trans keypos-28">
<rect rx="6" ry="6" x="-36" y="-36" width="71" height="71" class="key trans"/>
<text x="0" y="0" class="key trans tap">▽</text>
</g>
<g transform="translate(412, 206)" class="key trans keypos-29">
<rect rx="6" ry="6" x="-36" y="-36" width="71" height="71" class="key trans"/>
<text x="0" y="0" class="key trans tap">▽</text>
</g>
<g transform="translate(825, 206)" class="key trans keypos-30">
<rect rx="6" ry="6" x="-36" y="-36" width="71" height="71" class="key trans"/>
<text x="0" y="0" class="key trans tap">▽</text>
</g>
<g transform="translate(900, 197)" class="key trans keypos-31">
<rect rx="6" ry="6" x="-36" y="-36" width="71" height="71" class="key trans"/>
<text x="0" y="0" class="key trans tap">▽</text>
</g>
<g transform="translate(975, 188)" class="key trans keypos-32">
<rect rx="6" ry="6" x="-36" y="-36" width="71" height="71" class="key trans"/>
<text x="0" y="0" class="key trans tap">▽</text>
</g>
<g transform="translate(1050, 197)" class="key trans keypos-33">
<rect rx="6" ry="6" x="-36" y="-36" width="71" height="71" class="key trans"/>
<text x="0" y="0" class="key trans tap">▽</text>
</g>
<g transform="translate(1125, 216)" class="key trans keypos-34">
<rect rx="6" ry="6" x="-36" y="-36" width="71" height="71" class="key trans"/>
<text x="0" y="0" class="key trans tap">▽</text>
</g>
<g transform="translate(1200, 225)" class="key trans keypos-35">
<rect rx="6" ry="6" x="-36" y="-36" width="71" height="71" class="key trans"/>
<text x="0" y="0" class="key trans tap">▽</text>
</g>
<g transform="translate(38, 300)" class="key trans keypos-36">
<rect rx="6" ry="6" x="-36" y="-36" width="71" height="71" class="key trans"/>
<text x="0" y="0" class="key trans tap">▽</text>
</g>
<g transform="translate(112, 291)" class="key trans keypos-37">
<rect rx="6" ry="6" x="-36" y="-36" width="71" height="71" class="key trans"/>
<text x="0" y="0" class="key trans tap">▽</text>
</g>
<g transform="translate(188, 272)" class="key trans keypos-38">
<rect rx="6" ry="6" x="-36" y="-36" width="71" height="71" class="key trans"/>
<text x="0" y="0" class="key trans tap">▽</text>
</g>
<g transform="translate(262, 262)" class="key trans keypos-39">
<rect rx="6" ry="6" x="-36" y="-36" width="71" height="71" class="key trans"/>
<text x="0" y="0" class="key trans tap">▽</text>
</g>
<g transform="translate(338, 272)" class="key trans keypos-40">
<rect rx="6" ry="6" x="-36" y="-36" width="71" height="71" class="key trans"/>
<text x="0" y="0" class="key trans tap">▽</text>
</g>
<g transform="translate(412, 281)" class="key trans keypos-41">
<rect rx="6" ry="6" x="-36" y="-36" width="71" height="71" class="key trans"/>
<text x="0" y="0" class="key trans tap">▽</text>
</g>
<g transform="translate(488, 244)" class="key trans keypos-42">
<rect rx="6" ry="6" x="-36" y="-36" width="71" height="71" class="key trans"/>
<text x="0" y="0" class="key trans tap">▽</text>
</g>
<g transform="translate(750, 244)" class="key trans keypos-43">
<rect rx="6" ry="6" x="-36" y="-36" width="71" height="71" class="key trans"/>
<text x="0" y="0" class="key trans tap">▽</text>
</g>
<g transform="translate(825, 281)" class="key trans keypos-44">
<rect rx="6" ry="6" x="-36" y="-36" width="71" height="71" class="key trans"/>
<text x="0" y="0" class="key trans tap">▽</text>
</g>
<g transform="translate(900, 272)" class="key trans keypos-45">
<rect rx="6" ry="6" x="-36" y="-36" width="71" height="71" class="key trans"/>
<text x="0" y="0" class="key trans tap">▽</text>
</g>
<g transform="translate(975, 262)" class="key trans keypos-46">
<rect rx="6" ry="6" x="-36" y="-36" width="71" height="71" class="key trans"/>
<text x="0" y="0" class="key trans tap">▽</text>
</g>
<g transform="translate(1050, 272)" class="key trans keypos-47">
<rect rx="6" ry="6" x="-36" y="-36" width="71" height="71" class="key trans"/>
<text x="0" y="0" class="key trans tap">▽</text>
</g>
<g transform="translate(1125, 291)" class="key trans keypos-48">
<rect rx="6" ry="6" x="-36" y="-36" width="71" height="71" class="key trans"/>
<text x="0" y="0" class="key trans tap">▽</text>
</g>
<g transform="translate(1200, 300)" class="key trans keypos-49">
<rect rx="6" ry="6" x="-36" y="-36" width="71" height="71" class="key trans"/>
<text x="0" y="0" class="key trans tap">▽</text>
</g>
<g transform="translate(225, 347)" class="key trans keypos-50">
<rect rx="6" ry="6" x="-36" y="-36" width="71" height="71" class="key trans"/>
<text x="0" y="0" class="key trans tap">▽</text>
</g>
<g transform="translate(300, 349)" class="key trans keypos-51">
<rect rx="6" ry="6" x="-36" y="-36" width="71" height="71" class="key trans"/>
<text x="0" y="0" class="key trans tap">▽</text>
</g>
<g transform="translate(375, 356)" class="key trans keypos-52">
<rect rx="6" ry="6" x="-36" y="-36" width="71" height="71" class="key trans"/>
<text x="0" y="0" class="key trans tap">▽</text>
</g>
<g transform="translate(469, 356) rotate(30.0)" class="key trans keypos-53">
<rect rx="6" ry="6" x="-36" y="-54" width="71" height="108" class="key trans"/>
<text x="0" y="0" class="key trans tap">▽</text>
</g>
<g transform="translate(769, 356) rotate(-30.0)" class="key keypos-54">
<rect rx="6" ry="6" x="-36" y="-54" width="71" height="108" class="key"/>
<text x="0" y="0" class="key tap">DEL</text>
</g>
<g transform="translate(862, 356)" class="key held keypos-55">
<rect rx="6" ry="6" x="-36" y="-36" width="71" height="71" class="key held"/>
</g>
<g transform="translate(938, 349)" class="key trans keypos-56">
<rect rx="6" ry="6" x="-36" y="-36" width="71" height="71" class="key trans"/>
<text x="0" y="0" class="key trans tap">▽</text>
</g>
<g transform="translate(1012, 349)" class="key trans keypos-57">
<rect rx="6" ry="6" x="-36" y="-36" width="71" height="71" class="key trans"/>
<text x="0" y="0" class="key trans tap">▽</text>
</g>
</g>
</g>
<g transform="translate(3922, 0)" class="layer-L3">
<text x="0" y="28" class="label" id="L3">L3:</text>
<g transform="translate(0, 56)">
<g transform="translate(38, 75)" class="key trans keypos-0">
<rect rx="6" ry="6" x="-36" y="-36" width="71" height="71" class="key trans"/>
<text x="0" y="0" class="key trans tap">▽</text>
</g>
<g transform="translate(112, 66)" class="key trans keypos-1">
<rect rx="6" ry="6" x="-36" y="-36" width="71" height="71" class="key trans"/>
<text x="0" y="0" class="key trans tap">▽</text>
</g>
<g transform="translate(188, 47)" class="key trans keypos-2">
<rect rx="6" ry="6" x="-36" y="-36" width="71" height="71" class="key trans"/>
<text x="0" y="0" class="key trans tap">▽</text>
</g>
<g transform="translate(262, 38)" class="key trans keypos-3">
<rect rx="6" ry="6" x="-36" y="-36" width="71" height="71" class="key trans"/>
<text x="0" y="0" class="key trans tap">▽</text>
</g>
<g transform="translate(338, 47)" class="key trans keypos-4">
<rect rx="6" ry="6" x="-36" y="-36" width="71" height="71" class="key trans"/>
<text x="0" y="0" class="key trans tap">▽</text>
</g>
<g transform="translate(412, 56)" class="key trans keypos-5">
<rect rx="6" ry="6" x="-36" y="-36" width="71" height="71" class="key trans"/>
<text x="0" y="0" class="key trans tap">▽</text>
</g>
<g transform="translate(825, 56)" class="key trans keypos-6">
<rect rx="6" ry="6" x="-36" y="-36" width="71" height="71" class="key trans"/>
<text x="0" y="0" class="key trans tap">▽</text>
</g>
<g transform="translate(900, 47)" class="key trans keypos-7">
<rect rx="6" ry="6" x="-36" y="-36" width="71" height="71" class="key trans"/>
<text x="0" y="0" class="key trans tap">▽</text>
</g>
<g transform="translate(975, 38)" class="key trans keypos-8">
<rect rx="6" ry="6" x="-36" y="-36" width="71" height="71" class="key trans"/>
<text x="0" y="0" class="key trans tap">▽</text>
</g>
<g transform="translate(1050, 47)" class="key trans keypos-9">
<rect rx="6" ry="6" x="-36" y="-36" width="71" height="71" class="key trans"/>
<text x="0" y="0" class="key trans tap">▽</text>
</g>
<g transform="translate(1125, 66)" class="key trans keypos-10">
<rect rx="6" ry="6" x="-36" y="-36" width="71" height="71" class="key trans"/>
<text x="0" y="0" class="key trans tap">▽</text>
</g>
<g transform="translate(1200, 75)" class="key trans keypos-11">
<rect rx="6" ry="6" x="-36" y="-36" width="71" height="71" class="key trans"/>
<text x="0" y="0" class="key trans tap">▽</text>
</g>
<g transform="translate(38, 150)" class="key trans keypos-12">
<rect rx="6" ry="6" x="-36" y="-36" width="71" height="71" class="key trans"/>
<text x="0" y="0" class="key trans tap">▽</text>
</g>
<g transform="translate(112, 141)" class="key trans keypos-13">
<rect rx="6" ry="6" x="-36" y="-36" width="71" height="71" class="key trans"/>
<text x="0" y="0" class="key trans tap">▽</text>
</g>
<g transform="translate(188, 122)" class="key trans keypos-14">
<rect rx="6" ry="6" x="-36" y="-36" width="71" height="71" class="key trans"/>
<text x="0" y="0" class="key trans tap">▽</text>
</g>
<g transform="translate(262, 112)" class="key trans keypos-15">
<rect rx="6" ry="6" x="-36" y="-36" width="71" height="71" class="key trans"/>
<text x="0" y="0" class="key trans tap">▽</text>
</g>
<g transform="translate(338, 122)" class="key trans keypos-16">
<rect rx="6" ry="6" x="-36" y="-36" width="71" height="71" class="key trans"/>
<text x="0" y="0" class="key trans tap">▽</text>
</g>
<g transform="translate(412, 131)" class="key trans keypos-17">
<rect rx="6" ry="6" x="-36" y="-36" width="71" height="71" class="key trans"/>
<text x="0" y="0" class="key trans tap">▽</text>
</g>
<g transform="translate(825, 131)" class="key trans keypos-18">
<rect rx="6" ry="6" x="-36" y="-36" width="71" height="71" class="key trans"/>
<text x="0" y="0" class="key trans tap">▽</text>
</g>
<g transform="translate(900, 122)" class="key trans keypos-19">
<rect rx="6" ry="6" x="-36" y="-36" width="71" height="71" class="key trans"/>
<text x="0" y="0" class="key trans tap">▽</text>
</g>
<g transform="translate(975, 112)" class="key trans keypos-20">
<rect rx="6" ry="6" x="-36" y="-36" width="71" height="71" class="key trans"/>
<text x="0" y="0" class="key trans tap">▽</text>
</g>
<g transform="translate(1050, 122)" class="key trans keypos-21">
<rect rx="6" ry="6" x="-36" y="-36" width="71" height="71" class="key trans"/>
<text x="0" y="0" class="key trans tap">▽</text>
</g>
<g transform="translate(1125, 141)" class="key trans keypos-22">
<rect rx="6" ry="6" x="-36" y="-36" width="71" height="71" class="key trans"/>
<text x="0" y="0" class="key trans tap">▽</text>
</g>
<g transform="translate(1200, 150)" class="key trans keypos-23">
<rect rx="6" ry="6" x="-36" y="-36" width="71" height="71" class="key trans"/>
<text x="0" y="0" class="key trans tap">▽</text>
</g>
<g transform="translate(38, 225)" class="key trans keypos-24">
<rect rx="6" ry="6" x="-36" y="-36" width="71" height="71" class="key trans"/>
<text x="0" y="0" class="key trans tap">▽</text>
</g>
<g transform="translate(112, 216)" class="key trans keypos-25">
<rect rx="6" ry="6" x="-36" y="-36" width="71" height="71" class="key trans"/>
<text x="0" y="0" class="key trans tap">▽</text>
</g>
<g transform="translate(188, 197)" class="key trans keypos-26">
<rect rx="6" ry="6" x="-36" y="-36" width="71" height="71" class="key trans"/>
<text x="0" y="0" class="key trans tap">▽</text>
</g>
<g transform="translate(262, 188)" class="key trans keypos-27">
<rect rx="6" ry="6" x="-36" y="-36" width="71" height="71" class="key trans"/>
<text x="0" y="0" class="key trans tap">▽</text>
</g>
<g transform="translate(338, 197)" class="key trans keypos-28">
<rect rx="6" ry="6" x="-36" y="-36" width="71" height="71" class="key trans"/>
<text x="0" y="0" class="key trans tap">▽</text>
</g>
<g transform="translate(412, 206)" class="key trans keypos-29">
<rect rx="6" ry="6" x="-36" y="-36" width="71" height="71" class="key trans"/>
<text x="0" y="0" class="key trans tap">▽</text>
</g>
<g transform="translate(825, 206)" class="key trans keypos-30">
<rect rx="6" ry="6" x="-36" y="-36" width="71" height="71" class="key trans"/>
<text x="0" y="0" class="key trans tap">▽</text>
</g>
<g transform="translate(900, 197)" class="key trans keypos-31">
<rect rx="6" ry="6" x="-36" y="-36" width="71" height="71" class="key trans"/>
<text x="0" y="0" class="key trans tap">▽</text>
</g>
<g transform="translate(975, 188)" class="key trans keypos-32">
<rect rx="6" ry="6" x="-36" y="-36" width="71" height="71" class="key trans"/>
<text x="0" y="0" class="key trans tap">▽</text>
</g>
<g transform="translate(1050, 197)" class="key trans keypos-33">
<rect rx="6" ry="6" x="-36" y="-36" width="71" height="71" class="key trans"/>
<text x="0" y="0" class="key trans tap">▽</text>
</g>
<g transform="translate(1125, 216)" class="key trans keypos-34">
<rect rx="6" ry="6" x="-36" y="-36" width="71" height="71" class="key trans"/>
<text x="0" y="0" class="key trans tap">▽</text>
</g>
<g transform="translate(1200, 225)" class="key trans keypos-35">
<rect rx="6" ry="6" x="-36" y="-36" width="71" height="71" class="key trans"/>
<text x="0" y="0" class="key trans tap">▽</text>
</g>
<g transform="translate(38, 300)" class="key trans keypos-36">
<rect rx="6" ry="6" x="-36" y="-36" width="71" height="71" class="key trans"/>
<text x="0" y="0" class="key trans tap">▽</text>
</g>
<g transform="translate(112, 291)" class="key trans keypos-37">
<rect rx="6" ry="6" x="-36" y="-36" width="71" height="71" class="key trans"/>
<text x="0" y="0" class="key trans tap">▽</text>
</g>
<g transform="translate(188, 272)" class="key trans keypos-38">
<rect rx="6" ry="6" x="-36" y="-36" width="71" height="71" class="key trans"/>
<text x="0" y="0" class="key trans tap">▽</text>
</g>
<g transform="translate(262, 262)" class="key trans keypos-39">
<rect rx="6" ry="6" x="-36" y="-36" width="71" height="71" class="key trans"/>
<text x="0" y="0" class="key trans tap">▽</text>
</g>
<g transform="translate(338, 272)" class="key trans keypos-40">
<rect rx="6" ry="6" x="-36" y="-36" width="71" height="71" class="key trans"/>
<text x="0" y="0" class="key trans tap">▽</text>
</g>
<g transform="translate(412, 281)" class="key trans keypos-41">
<rect rx="6" ry="6" x="-36" y="-36" width="71" height="71" class="key trans"/>
<text x="0" y="0" class="key trans tap">▽</text>
</g>
<g transform="translate(488, 244)" class="key trans keypos-42">
<rect rx="6" ry="6" x="-36" y="-36" width="71" height="71" class="key trans"/>
<text x="0" y="0" class="key trans tap">▽</text>
</g>
<g transform="translate(750, 244)" class="key trans keypos-43">
<rect rx="6" ry="6" x="-36" y="-36" width="71" height="71" class="key trans"/>
<text x="0" y="0" class="key trans tap">▽</text>
</g>
<g transform="translate(825, 281)" class="key trans keypos-44">
<rect rx="6" ry="6" x="-36" y="-36" width="71" height="71" class="key trans"/>
<text x="0" y="0" class="key trans tap">▽</text>
</g>
<g transform="translate(900, 272)" class="key trans keypos-45">
<rect rx="6" ry="6" x="-36" y="-36" width="71" height="71" class="key trans"/>
<text x="0" y="0" class="key trans tap">▽</text>
</g>
<g transform="translate(975, 262)" class="key trans keypos-46">
<rect rx="6" ry="6" x="-36" y="-36" width="71" height="71" class="key trans"/>
<text x="0" y="0" class="key trans tap">▽</text>
</g>
<g transform="translate(1050, 272)" class="key trans keypos-47">
<rect rx="6" ry="6" x="-36" y="-36" width="71" height="71" class="key trans"/>
<text x="0" y="0" class="key trans tap">▽</text>
</g>
<g transform="translate(1125, 291)" class="key trans keypos-48">
<rect rx="6" ry="6" x="-36" y="-36" width="71" height="71" class="key trans"/>
<text x="0" y="0" class="key trans tap">▽</text>
</g>
<g transform="translate(1200, 300)" class="key trans keypos-49">
<rect rx="6" ry="6" x="-36" y="-36" width="71" height="71" class="key trans"/>
<text x="0" y="0" class="key trans tap">▽</text>
</g>
<g transform="translate(225, 347)" class="key trans keypos-50">
<rect rx="6" ry="6" x="-36" y="-36" width="71" height="71" class="key trans"/>
<text x="0" y="0" class="key trans tap">▽</text>
</g>
<g transform="translate(300, 349)" class="key trans keypos-51">
<rect rx="6" ry="6" x="-36" y="-36" width="71" height="71" class="key trans"/>
<text x="0" y="0" class="key trans tap">▽</text>
</g>
<g transform="translate(375, 356)" class="key trans keypos-52">
<rect rx="6" ry="6" x="-36" y="-36" width="71" height="71" class="key trans"/>
<text x="0" y="0" class="key trans tap">▽</text>
</g>
<g transform="translate(469, 356) rotate(30.0)" class="key trans keypos-53">
<rect rx="6" ry="6" x="-36" y="-54" width="71" height="108" class="key trans"/>
<text x="0" y="0" class="key trans tap">▽</text>
</g>
<g transform="translate(769, 356) rotate(-30.0)" class="key trans keypos-54">
<rect rx="6" ry="6" x="-36" y="-54" width="71" height="108" class="key trans"/>
<text x="0" y="0" class="key trans tap">▽</text>
</g>
<g transform="translate(862, 356)" class="key trans keypos-55">
<rect rx="6" ry="6" x="-36" y="-36" width="71" height="71" class="key trans"/>
<text x="0" y="0" class="key trans tap">▽</text>
</g>
<g transform="translate(938, 349)" class="key trans keypos-56">
<rect rx="6" ry="6" x="-36" y="-36" width="71" height="71" class="key trans"/>
<text x="0" y="0" class="key trans tap">▽</text>
</g>
<g transform="translate(1012, 349)" class="key trans keypos-57">
<rect rx="6" ry="6" x="-36" y="-36" width="71" height="71" class="key trans"/>
<text x="0" y="0" class="key trans tap">▽</text>
</g>
</g>
</g>
</svg>
