<svg width="7560" height="569" viewBox="0 0 7560 569" class="keymap" xmlns="http://www.w3.org/2000/svg" xmlns:xlink="http://www.w3.org/1999/xlink">
<style>/* inherit to force styles through use tags */
svg path {
    fill: inherit;
}

/* font and background color specifications */
svg.keymap {
    font-family: SFMono-Regular,Consolas,Liberation Mono,Menlo,monospace;
    font-size: 14px;
    font-kerning: normal;
    text-rendering: optimizeLegibility;
    fill: #24292e;
}

/* default key styling */
rect.key {
    fill: #f6f8fa;
}

rect.key, rect.combo {
    stroke: #c9cccf;
    stroke-width: 1;
}

/* default key side styling, only used is draw_key_sides is set */
rect.side {
    filter: brightness(90%);
}

/* color accent for combo boxes */
rect.combo, rect.combo-separate {
    fill: #cdf;
}

/* color accent for held keys */
rect.held, rect.combo.held {
    fill: #fdd;
}

/* color accent for ghost (optional) keys */
rect.ghost, rect.combo.ghost {
    stroke-dasharray: 4, 4;
    stroke-width: 2;
}

text {
    text-anchor: middle;
    dominant-baseline: middle;
}

/* styling for layer labels */
text.label {
    font-weight: bold;
    text-anchor: start;
    stroke: white;
    stroke-width: 4;
    paint-order: stroke;
}

/* styling for optional footer */
text.footer {
    text-anchor: end;
    dominant-baseline: auto;
    stroke: white;
    stroke-width: 4;
    paint-order: stroke;
}

/* styling for combo tap, and key non-tap label text */
text.combo, text.hold, text.shifted, text.left, text.right, text.tl, text.tr, text.bl, text.br {
    font-size: 11px;
}

text.hold, text.bl, text.br {
    text-anchor: middle;
    dominant-baseline: auto;
}

text.shifted, text.tl, text.tr {
    text-anchor: middle;
    dominant-baseline: hanging;
}

text.left, text.tl, text.bl {
    text-anchor: start;
}

text.right, text.tr, text.br {
    text-anchor: end;
}

text.layer-activator {
    text-decoration: underline;
}

/* styling for hold/shifted label text in combo box */
text.combo.hold, text.combo.shifted, text.combo.left, text.combo.right {
    font-size: 8px;
}

/* lighter symbol for transparent keys */
text.trans {
    fill: #7b7e81;
}

/* styling for combo dendrons */
path.combo {
    stroke-width: 1;
    stroke: gray;
    fill: none;
}

/* Start Tabler Icons Cleanup */
/* cannot use height/width with glyphs */
.icon-tabler > path {
    fill: inherit;
    stroke: inherit;
    stroke-width: 2;
}
/* hide tabler's default box */
.icon-tabler > path[stroke="none"][fill="none"] {
    visibility: hidden;
}
/* End Tabler Icons Cleanup */
</style>
<g transform="translate(30, 0)" class="layer-BAS">
<text x="0" y="28" class="label" id="BAS">BAS:</text>
<g transform="translate(0, 56)">
<g transform="translate(38, 84)" class="key keypos-0">
<rect rx="6" ry="6" x="-36" y="-36" width="71" height="71" class="key"/>
<text x="0" y="0" class="key tap">`</text>
</g>
<g transform="translate(112, 84)" class="key keypos-1">
<rect rx="6" ry="6" x="-36" y="-36" width="71" height="71" class="key"/>
<text x="0" y="0" class="key tap">1</text>
</g>
<g transform="translate(188, 47)" class="key keypos-2">
<rect rx="6" ry="6" x="-36" y="-36" width="71" height="71" class="key"/>
<text x="0" y="0" class="key tap">2</text>
</g>
<g transform="translate(262, 38)" class="key keypos-3">
<rect rx="6" ry="6" x="-36" y="-36" width="71" height="71" class="key"/>
<text x="0" y="0" class="key tap">3</text>
</g>
<g transform="translate(338, 47)" class="key keypos-4">
<rect rx="6" ry="6" x="-36" y="-36" width="71" height="71" class="key"/>
<text x="0" y="0" class="key tap">4</text>
</g>
<g transform="translate(412, 56)" class="key keypos-5">
<rect rx="6" ry="6" x="-36" y="-36" width="71" height="71" class="key"/>
<text x="0" y="0" class="key tap">5</text>
</g>
<g transform="translate(788, 56)" class="key keypos-6">
<rect rx="6" ry="6" x="-36" y="-36" width="71" height="71" class="key"/>
<text x="0" y="0" class="key tap">6</text>
</g>
<g transform="translate(862, 47)" class="key keypos-7">
<rect rx="6" ry="6" x="-36" y="-36" width="71" height="71" class="key"/>
<text x="0" y="0" class="key tap">7</text>
</g>
<g transform="translate(938, 38)" class="key keypos-8">
<rect rx="6" ry="6" x="-36" y="-36" width="71" height="71" class="key"/>
<text x="0" y="0" class="key tap">8</text>
</g>
<g transform="translate(1012, 47)" class="key keypos-9">
<rect rx="6" ry="6" x="-36" y="-36" width="71" height="71" class="key"/>
<text x="0" y="0" class="key tap">9</text>
</g>
<g transform="translate(1088, 84)" class="key keypos-10">
<rect rx="6" ry="6" x="-36" y="-36" width="71" height="71" class="key"/>
<text x="0" y="0" class="key tap">0</text>
</g>
<g transform="translate(1162, 84)" class="key keypos-11">
<rect rx="6" ry="6" x="-36" y="-36" width="71" height="71" class="key"/>
<text x="0" y="0" class="key tap">-</text>
</g>
<g transform="translate(38, 159)" class="key keypos-12">
<rect rx="6" ry="6" x="-36" y="-36" width="71" height="71" class="key"/>
<text x="0" y="0" class="key tap">ESC</text>
</g>
<g transform="translate(112, 159)" class="key keypos-13">
<rect rx="6" ry="6" x="-36" y="-36" width="71" height="71" class="key"/>
<text x="0" y="0" class="key tap">Q</text>
</g>
<g transform="translate(188, 122)" class="key keypos-14">
<rect rx="6" ry="6" x="-36" y="-36" width="71" height="71" class="key"/>
<text x="0" y="0" class="key tap">W</text>
</g>
<g transform="translate(262, 112)" class="key keypos-15">
<rect rx="6" ry="6" x="-36" y="-36" width="71" height="71" class="key"/>
<text x="0" y="0" class="key tap">E</text>
</g>
<g transform="translate(338, 122)" class="key keypos-16">
<rect rx="6" ry="6" x="-36" y="-36" width="71" height="71" class="key"/>
<text x="0" y="0" class="key tap">R</text>
</g>
<g transform="translate(412, 131)" class="key keypos-17">
<rect rx="6" ry="6" x="-36" y="-36" width="71" height="71" class="key"/>
<text x="0" y="0" class="key tap">T</text>
</g>
<g transform="translate(788, 131)" class="key keypos-18">
<rect rx="6" ry="6" x="-36" y="-36" width="71" height="71" class="key"/>
<text x="0" y="0" class="key tap">Y</text>
</g>
<g transform="translate(862, 122)" class="key keypos-19">
<rect rx="6" ry="6" x="-36" y="-36" width="71" height="71" class="key"/>
<text x="0" y="0" class="key tap">U</text>
</g>
<g transform="translate(938, 112)" class="key keypos-20">
<rect rx="6" ry="6" x="-36" y="-36" width="71" height="71" class="key"/>
<text x="0" y="0" class="key tap">I</text>
</g>
<g transform="translate(1012, 122)" class="key keypos-21">
<rect rx="6" ry="6" x="-36" y="-36" width="71" height="71" class="key"/>
<text x="0" y="0" class="key tap">O</text>
</g>
<g transform="translate(1088, 159)" class="key keypos-22">
<rect rx="6" ry="6" x="-36" y="-36" width="71" height="71" class="key"/>
<text x="0" y="0" class="key tap">P</text>
</g>
<g transform="translate(1162, 159)" class="key keypos-23">
<rect rx="6" ry="6" x="-36" y="-36" width="71" height="71" class="key"/>
<text x="0" y="0" class="key tap">BSPC</text>
</g>
<g transform="translate(38, 234)" class="key keypos-24">
<rect rx="6" ry="6" x="-36" y="-36" width="71" height="71" class="key"/>
<text x="0" y="0" class="key tap">TAB</text>
</g>
<g transform="translate(112, 234)" class="key keypos-25">
<rect rx="6" ry="6" x="-36" y="-36" width="71" height="71" class="key"/>
<text x="0" y="0" class="key tap">A</text>
</g>
<g transform="translate(188, 197)" class="key keypos-26">
<rect rx="6" ry="6" x="-36" y="-36" width="71" height="71" class="key"/>
<text x="0" y="0" class="key tap">S</text>
</g>
<g transform="translate(262, 188)" class="key keypos-27">
<rect rx="6" ry="6" x="-36" y="-36" width="71" height="71" class="key"/>
<text x="0" y="0" class="key tap">D</text>
</g>
<g transform="translate(338, 197)" class="key keypos-28">
<rect rx="6" ry="6" x="-36" y="-36" width="71" height="71" class="key"/>
<text x="0" y="0" class="key tap">F</text>
</g>
<g transform="translate(412, 206)" class="key keypos-29">
<rect rx="6" ry="6" x="-36" y="-36" width="71" height="71" class="key"/>
<text x="0" y="0" class="key tap">G</text>
</g>
<g transform="translate(788, 206)" class="key keypos-30">
<rect rx="6" ry="6" x="-36" y="-36" width="71" height="71" class="key"/>
<text x="0" y="0" class="key tap">H</text>
</g>
<g transform="translate(862, 197)" class="key keypos-31">
<rect rx="6" ry="6" x="-36" y="-36" width="71" height="71" class="key"/>
<text x="0" y="0" class="key tap">J</text>
</g>
<g transform="translate(938, 188)" class="key keypos-32">
<rect rx="6" ry="6" x="-36" y="-36" width="71" height="71" class="key"/>
<text x="0" y="0" class="key tap">K</text>
</g>
<g transform="translate(1012, 197)" class="key keypos-33">
<rect rx="6" ry="6" x="-36" y="-36" width="71" height="71" class="key"/>
<text x="0" y="0" class="key tap">L</text>
</g>
<g transform="translate(1088, 234)" class="key keypos-34">
<rect rx="6" ry="6" x="-36" y="-36" width="71" height="71" class="key"/>
<text x="0" y="0" class="key tap">;</text>
</g>
<g transform="translate(1162, 234)" class="key keypos-35">
<rect rx="6" ry="6" x="-36" y="-36" width="71" height="71" class="key"/>
<text x="0" y="0" class="key tap">&#x27;</text>
</g>
<g transform="translate(38, 309)" class="key keypos-36">
<rect rx="6" ry="6" x="-36" y="-36" width="71" height="71" class="key"/>
<text x="0" y="0" class="key tap">LSHFT</text>
</g>
<g transform="translate(112, 309)" class="key keypos-37">
<rect rx="6" ry="6" x="-36" y="-36" width="71" height="71" class="key"/>
<text x="0" y="0" class="key tap">Z</text>
</g>
<g transform="translate(188, 272)" class="key keypos-38">
<rect rx="6" ry="6" x="-36" y="-36" width="71" height="71" class="key"/>
<text x="0" y="0" class="key tap">X</text>
</g>
<g transform="translate(262, 262)" class="key keypos-39">
<rect rx="6" ry="6" x="-36" y="-36" width="71" height="71" class="key"/>
<text x="0" y="0" class="key tap">C</text>
</g>
<g transform="translate(338, 272)" class="key keypos-40">
<rect rx="6" ry="6" x="-36" y="-36" width="71" height="71" class="key"/>
<text x="0" y="0" class="key tap">V</text>
</g>
<g transform="translate(412, 281)" class="key keypos-41">
<rect rx="6" ry="6" x="-36" y="-36" width="71" height="71" class="key"/>
<text x="0" y="0" class="key tap">B</text>
</g>
<g transform="translate(497, 281)" class="key keypos-42">
<rect rx="6" ry="6" x="-36" y="-36" width="71" height="71" class="key"/>
<text x="0" y="0" class="key tap">
<tspan x="0" dy="-0.6em">Gui+Sft</tspan><tspan x="0" dy="1.2em">+4</tspan>
</text>
</g>
<g transform="translate(703, 281)" class="key keypos-43">
<rect rx="6" ry="6" x="-36" y="-36" width="71" height="71" class="key"/>
<text x="0" y="0" class="key tap">MUTE</text>
</g>
<g transform="translate(788, 281)" class="key keypos-44">
<rect rx="6" ry="6" x="-36" y="-36" width="71" height="71" class="key"/>
<text x="0" y="0" class="key tap">N</text>
</g>
<g transform="translate(862, 272)" class="key keypos-45">
<rect rx="6" ry="6" x="-36" y="-36" width="71" height="71" class="key"/>
<text x="0" y="0" class="key tap">M</text>
</g>
<g transform="translate(938, 262)" class="key keypos-46">
<rect rx="6" ry="6" x="-36" y="-36" width="71" height="71" class="key"/>
<text x="0" y="0" class="key tap">,</text>
</g>
<g transform="translate(1012, 272)" class="key keypos-47">
<rect rx="6" ry="6" x="-36" y="-36" width="71" height="71" class="key"/>
<text x="0" y="0" class="key tap">.</text>
</g>
<g transform="translate(1088, 309)" class="key keypos-48">
<rect rx="6" ry="6" x="-36" y="-36" width="71" height="71" class="key"/>
<text x="0" y="0" class="key tap">/</text>
</g>
<g transform="translate(1162, 309)" class="key keypos-49">
<rect rx="6" ry="6" x="-36" y="-36" width="71" height="71" class="key"/>
<text x="0" y="0" class="key tap">RSHFT</text>
</g>
<g transform="translate(188, 347)" class="key keypos-50">
<rect rx="6" ry="6" x="-36" y="-36" width="71" height="71" class="key"/>
<text x="0" y="0" class="key tap">LGUI</text>
</g>
<g transform="translate(262, 338)" class="key keypos-51">
<rect rx="6" ry="6" x="-36" y="-36" width="71" height="71" class="key"/>
<text x="0" y="0" class="key tap">LALT</text>
</g>
<g transform="translate(338, 347)" class="key keypos-52">
<rect rx="6" ry="6" x="-36" y="-36" width="71" height="71" class="key"/>
<text x="0" y="0" class="key tap">LCTRL</text>
</g>
<g transform="translate(424, 368) rotate(22.5)" class="key keypos-53">
<rect rx="6" ry="6" x="-36" y="-36" width="71" height="71" class="key"/>
<a href="#LOW">
<text x="0" y="0" class="key tap layer-activator">LOW</text>
</a></g>
<g transform="translate(506, 390) rotate(30.0)" class="key keypos-54">
<rect rx="6" ry="6" x="-36" y="-54" width="71" height="108" class="key"/>
<text x="0" y="0" class="key tap">SPACE</text>
</g>
<g transform="translate(694, 390) rotate(-30.0)" class="key keypos-55">
<rect rx="6" ry="6" x="-36" y="-54" width="71" height="108" class="key"/>
<text x="0" y="0" class="key tap">RET</text>
</g>
<g transform="translate(776, 368) rotate(-22.5)" class="key keypos-56">
<rect rx="6" ry="6" x="-36" y="-36" width="71" height="71" class="key"/>
<text x="0" y="0" class="key tap">
<tspan x="0" dy="-0.6em">RIGHT</tspan><tspan x="0" dy="1.2em">WIN</tspan>
</text>
</g>
<g transform="translate(862, 347)" class="key keypos-57">
<rect rx="6" ry="6" x="-36" y="-36" width="71" height="71" class="key"/>
<text x="0" y="0" class="key tap">RCTRL</text>
</g>
<g transform="translate(938, 338)" class="key keypos-58">
<rect rx="6" ry="6" x="-36" y="-36" width="71" height="71" class="key"/>
<text x="0" y="0" class="key tap">RALT</text>
</g>
<g transform="translate(1012, 347)" class="key keypos-59">
<rect rx="6" ry="6" x="-36" y="-36" width="71" height="71" class="key"/>
<text x="0" y="0" class="key tap">RGUI</text>
</g>
</g>
</g>
<g transform="translate(1290, 0)" class="layer-LOW">
<text x="0" y="28" class="label" id="LOW">LOW:</text>
<g transform="translate(0, 56)">
<g transform="translate(38, 84)" class="key keypos-0">
<rect rx="6" ry="6" x="-36" y="-36" width="71" height="71" class="key"/>
<text x="0" y="0" class="key tap">`</text>
</g>
<g transform="translate(112, 84)" class="key keypos-1">
<rect rx="6" ry="6" x="-36" y="-36" width="71" height="71" class="key"/>
<text x="0" y="0" class="key tap">F1</text>
</g>
<g transform="translate(188, 47)" class="key keypos-2">
<rect rx="6" ry="6" x="-36" y="-36" width="71" height="71" class="key"/>
<text x="0" y="0" class="key tap">F2</text>
</g>
<g transform="translate(262, 38)" class="key keypos-3">
<rect rx="6" ry="6" x="-36" y="-36" width="71" height="71" class="key"/>
<text x="0" y="0" class="key tap">F3</text>
</g>
<g transform="translate(338, 47)" class="key keypos-4">
<rect rx="6" ry="6" x="-36" y="-36" width="71" height="71" class="key"/>
<text x="0" y="0" class="key tap">F4</text>
</g>
<g transform="translate(412, 56)" class="key keypos-5">
<rect rx="6" ry="6" x="-36" y="-36" width="71" height="71" class="key"/>
<text x="0" y="0" class="key tap">F5</text>
</g>
<g transform="translate(788, 56)" class="key keypos-6">
<rect rx="6" ry="6" x="-36" y="-36" width="71" height="71" class="key"/>
<text x="0" y="0" class="key tap">F6</text>
</g>
<g transform="translate(862, 47)" class="key keypos-7">
<rect rx="6" ry="6" x="-36" y="-36" width="71" height="71" class="key"/>
<text x="0" y="0" class="key tap">F7</text>
</g>
<g transform="translate(938, 38)" class="key keypos-8">
<rect rx="6" ry="6" x="-36" y="-36" width="71" height="71" class="key"/>
<text x="0" y="0" class="key tap">F8</text>
</g>
<g transform="translate(1012, 47)" class="key keypos-9">
<rect rx="6" ry="6" x="-36" y="-36" width="71" height="71" class="key"/>
<text x="0" y="0" class="key tap">F9</text>
</g>
<g transform="translate(1088, 84)" class="key keypos-10">
<rect rx="6" ry="6" x="-36" y="-36" width="71" height="71" class="key"/>
<text x="0" y="0" class="key tap">F10</text>
</g>
<g transform="translate(1162, 84)" class="key keypos-11">
<rect rx="6" ry="6" x="-36" y="-36" width="71" height="71" class="key"/>
<text x="0" y="0" class="key tap">F11</text>
</g>
<g transform="translate(38, 159)" class="key keypos-12">
<rect rx="6" ry="6" x="-36" y="-36" width="71" height="71" class="key"/>
<a href="#RAI">
<text x="0" y="0" class="key tap layer-activator">RAI</text>
</a></g>
<g transform="translate(112, 159)" class="key keypos-13">
<rect rx="6" ry="6" x="-36" y="-36" width="71" height="71" class="key"/>
<text x="0" y="0" class="key tap">1</text>
</g>
<g transform="translate(188, 122)" class="key keypos-14">
<rect rx="6" ry="6" x="-36" y="-36" width="71" height="71" class="key"/>
<text x="0" y="0" class="key tap">2</text>
</g>
<g transform="translate(262, 112)" class="key keypos-15">
<rect rx="6" ry="6" x="-36" y="-36" width="71" height="71" class="key"/>
<text x="0" y="0" class="key tap">3</text>
</g>
<g transform="translate(338, 122)" class="key keypos-16">
<rect rx="6" ry="6" x="-36" y="-36" width="71" height="71" class="key"/>
<text x="0" y="0" class="key tap">4</text>
</g>
<g transform="translate(412, 131)" class="key keypos-17">
<rect rx="6" ry="6" x="-36" y="-36" width="71" height="71" class="key"/>
<text x="0" y="0" class="key tap">5</text>
</g>
<g transform="translate(788, 131)" class="key keypos-18">
<rect rx="6" ry="6" x="-36" y="-36" width="71" height="71" class="key"/>
<text x="0" y="0" class="key tap">6</text>
</g>
<g transform="translate(862, 122)" class="key keypos-19">
<rect rx="6" ry="6" x="-36" y="-36" width="71" height="71" class="key"/>
<text x="0" y="0" class="key tap">7</text>
</g>
<g transform="translate(938, 112)" class="key keypos-20">
<rect rx="6" ry="6" x="-36" y="-36" width="71" height="71" class="key"/>
<text x="0" y="0" class="key tap">8</text>
</g>
<g transform="translate(1012, 122)" class="key keypos-21">
<rect rx="6" ry="6" x="-36" y="-36" width="71" height="71" class="key"/>
<text x="0" y="0" class="key tap">9</text>
</g>
<g transform="translate(1088, 159)" class="key keypos-22">
<rect rx="6" ry="6" x="-36" y="-36" width="71" height="71" class="key"/>
<text x="0" y="0" class="key tap">0</text>
</g>
<g transform="translate(1162, 159)" class="key keypos-23">
<rect rx="6" ry="6" x="-36" y="-36" width="71" height="71" class="key"/>
<text x="0" y="0" class="key tap">F12</text>
</g>
<g transform="translate(38, 234)" class="key trans keypos-24">
<rect rx="6" ry="6" x="-36" y="-36" width="71" height="71" class="key trans"/>
<text x="0" y="0" class="key trans tap">▽</text>
</g>
<g transform="translate(112, 234)" class="key keypos-25">
<rect rx="6" ry="6" x="-36" y="-36" width="71" height="71" class="key"/>
<text x="0" y="0" class="key tap">!</text>
</g>
<g transform="translate(188, 197)" class="key keypos-26">
<rect rx="6" ry="6" x="-36" y="-36" width="71" height="71" class="key"/>
<text x="0" y="0" class="key tap">@</text>
</g>
<g transform="translate(262, 188)" class="key keypos-27">
<rect rx="6" ry="6" x="-36" y="-36" width="71" height="71" class="key"/>
<text x="0" y="0" class="key tap">#</text>
</g>
<g transform="translate(338, 197)" class="key keypos-28">
<rect rx="6" ry="6" x="-36" y="-36" width="71" height="71" class="key"/>
<text x="0" y="0" class="key tap">$</text>
</g>
<g transform="translate(412, 206)" class="key keypos-29">
<rect rx="6" ry="6" x="-36" y="-36" width="71" height="71" class="key"/>
<text x="0" y="0" class="key tap">%</text>
</g>
<g transform="translate(788, 206)" class="key keypos-30">
<rect rx="6" ry="6" x="-36" y="-36" width="71" height="71" class="key"/>
<text x="0" y="0" class="key tap">^</text>
</g>
<g transform="translate(862, 197)" class="key keypos-31">
<rect rx="6" ry="6" x="-36" y="-36" width="71" height="71" class="key"/>
<text x="0" y="0" class="key tap">&amp;</text>
</g>
<g transform="translate(938, 188)" class="key keypos-32">
<rect rx="6" ry="6" x="-36" y="-36" width="71" height="71" class="key"/>
<text x="0" y="0" class="key tap">
<tspan x="0" dy="-0.6em" style="font-size: 88%">KP</tspan><tspan x="0" dy="1.2em" style="font-size: 88%">MULTIPLY</tspan>
</text>
</g>
<g transform="translate(1012, 197)" class="key keypos-33">
<rect rx="6" ry="6" x="-36" y="-36" width="71" height="71" class="key"/>
<text x="0" y="0" class="key tap">(</text>
</g>
<g transform="translate(1088, 234)" class="key keypos-34">
<rect rx="6" ry="6" x="-36" y="-36" width="71" height="71" class="key"/>
<text x="0" y="0" class="key tap">)</text>
</g>
<g transform="translate(1162, 234)" class="key keypos-35">
<rect rx="6" ry="6" x="-36" y="-36" width="71" height="71" class="key"/>
<text x="0" y="0" class="key tap">|</text>
</g>
<g transform="translate(38, 309)" class="key trans keypos-36">
<rect rx="6" ry="6" x="-36" y="-36" width="71" height="71" class="key trans"/>
<text x="0" y="0" class="key trans tap">▽</text>
</g>
<g transform="translate(112, 309)" class="key keypos-37">
<rect rx="6" ry="6" x="-36" y="-36" width="71" height="71" class="key"/>
<text x="0" y="0" class="key tap">=</text>
</g>
<g transform="translate(188, 272)" class="key keypos-38">
<rect rx="6" ry="6" x="-36" y="-36" width="71" height="71" class="key"/>
<text x="0" y="0" class="key tap">-</text>
</g>
<g transform="translate(262, 262)" class="key keypos-39">
<rect rx="6" ry="6" x="-36" y="-36" width="71" height="71" class="key"/>
<text x="0" y="0" class="key tap">
<tspan x="0" dy="-0.6em">KP</tspan><tspan x="0" dy="1.2em">PLUS</tspan>
</text>
</g>
<g transform="translate(338, 272)" class="key keypos-40">
<rect rx="6" ry="6" x="-36" y="-36" width="71" height="71" class="key"/>
<text x="0" y="0" class="key tap">{</text>
</g>
<g transform="translate(412, 281)" class="key keypos-41">
<rect rx="6" ry="6" x="-36" y="-36" width="71" height="71" class="key"/>
<text x="0" y="0" class="key tap">}</text>
</g>
<g transform="translate(497, 281)" class="key trans keypos-42">
<rect rx="6" ry="6" x="-36" y="-36" width="71" height="71" class="key trans"/>
<text x="0" y="0" class="key trans tap">▽</text>
</g>
<g transform="translate(703, 281)" class="key trans keypos-43">
<rect rx="6" ry="6" x="-36" y="-36" width="71" height="71" class="key trans"/>
<text x="0" y="0" class="key trans tap">▽</text>
</g>
<g transform="translate(788, 281)" class="key keypos-44">
<rect rx="6" ry="6" x="-36" y="-36" width="71" height="71" class="key"/>
<text x="0" y="0" class="key tap">[</text>
</g>
<g transform="translate(862, 272)" class="key keypos-45">
<rect rx="6" ry="6" x="-36" y="-36" width="71" height="71" class="key"/>
<text x="0" y="0" class="key tap">]</text>
</g>
<g transform="translate(938, 262)" class="key keypos-46">
<rect rx="6" ry="6" x="-36" y="-36" width="71" height="71" class="key"/>
<text x="0" y="0" class="key tap">;</text>
</g>
<g transform="translate(1012, 272)" class="key keypos-47">
<rect rx="6" ry="6" x="-36" y="-36" width="71" height="71" class="key"/>
<text x="0" y="0" class="key tap">:</text>
</g>
<g transform="translate(1088, 309)" class="key keypos-48">
<rect rx="6" ry="6" x="-36" y="-36" width="71" height="71" class="key"/>
<text x="0" y="0" class="key tap">\</text>
</g>
<g transform="translate(1162, 309)" class="key trans keypos-49">
<rect rx="6" ry="6" x="-36" y="-36" width="71" height="71" class="key trans"/>
<text x="0" y="0" class="key trans tap">▽</text>
</g>
<g transform="translate(188, 347)" class="key trans keypos-50">
<rect rx="6" ry="6" x="-36" y="-36" width="71" height="71" class="key trans"/>
<text x="0" y="0" class="key trans tap">▽</text>
</g>
<g transform="translate(262, 338)" class="key trans keypos-51">
<rect rx="6" ry="6" x="-36" y="-36" width="71" height="71" class="key trans"/>
<text x="0" y="0" class="key trans tap">▽</text>
</g>
<g transform="translate(338, 347)" class="key trans keypos-52">
<rect rx="6" ry="6" x="-36" y="-36" width="71" height="71" class="key trans"/>
<text x="0" y="0" class="key trans tap">▽</text>
</g>
<g transform="translate(424, 368) rotate(22.5)" class="key held keypos-53">
<rect rx="6" ry="6" x="-36" y="-36" width="71" height="71" class="key held"/>
</g>
<g transform="translate(506, 390) rotate(30.0)" class="key trans keypos-54">
<rect rx="6" ry="6" x="-36" y="-54" width="71" height="108" class="key trans"/>
<text x="0" y="0" class="key trans tap">▽</text>
</g>
<g transform="translate(694, 390) rotate(-30.0)" class="key trans keypos-55">
<rect rx="6" ry="6" x="-36" y="-54" width="71" height="108" class="key trans"/>
<text x="0" y="0" class="key trans tap">▽</text>
</g>
<g transform="translate(776, 368) rotate(-22.5)" class="key trans keypos-56">
<rect rx="6" ry="6" x="-36" y="-36" width="71" height="71" class="key trans"/>
<text x="0" y="0" class="key trans tap">▽</text>
</g>
<g transform="translate(862, 347)" class="key trans keypos-57">
<rect rx="6" ry="6" x="-36" y="-36" width="71" height="71" class="key trans"/>
<text x="0" y="0" class="key trans tap">▽</text>
</g>
<g transform="translate(938, 338)" class="key trans keypos-58">
<rect rx="6" ry="6" x="-36" y="-36" width="71" height="71" class="key trans"/>
<text x="0" y="0" class="key trans tap">▽</text>
</g>
<g transform="translate(1012, 347)" class="key trans keypos-59">
<rect rx="6" ry="6" x="-36" y="-36" width="71" height="71" class="key trans"/>
<text x="0" y="0" class="key trans tap">▽</text>
</g>
</g>
</g>
<g transform="translate(2550, 0)" class="layer-RAI">
<text x="0" y="28" class="label" id="RAI">RAI:</text>
<g transform="translate(0, 56)">
<g transform="translate(38, 84)" class="key keypos-0">
<rect rx="6" ry="6" x="-36" y="-36" width="71" height="71" class="key"/>
<text x="0" y="0" class="key tap">
<tspan x="0" dy="-0.6em">BT</tspan><tspan x="0" dy="1.2em">CLR</tspan>
</text>
</g>
<g transform="translate(112, 84)" class="key keypos-1">
<rect rx="6" ry="6" x="-36" y="-36" width="71" height="71" class="key"/>
<text x="0" y="0" class="key tap">BT</text>
<text x="0" y="34" class="key hold">0</text>
</g>
<g transform="translate(188, 47)" class="key keypos-2">
<rect rx="6" ry="6" x="-36" y="-36" width="71" height="71" class="key"/>
<text x="0" y="0" class="key tap">BT</text>
<text x="0" y="34" class="key hold">1</text>
</g>
<g transform="translate(262, 38)" class="key keypos-3">
<rect rx="6" ry="6" x="-36" y="-36" width="71" height="71" class="key"/>
<text x="0" y="0" class="key tap">BT</text>
<text x="0" y="34" class="key hold">2</text>
</g>
<g transform="translate(338, 47)" class="key keypos-4">
<rect rx="6" ry="6" x="-36" y="-36" width="71" height="71" class="key"/>
<text x="0" y="0" class="key tap">BT</text>
<text x="0" y="34" class="key hold">3</text>
</g>
<g transform="translate(412, 56)" class="key keypos-5">
<rect rx="6" ry="6" x="-36" y="-36" width="71" height="71" class="key"/>
<text x="0" y="0" class="key tap">BT</text>
<text x="0" y="34" class="key hold">4</text>
</g>
<g transform="translate(788, 56)" class="key trans keypos-6">
<rect rx="6" ry="6" x="-36" y="-36" width="71" height="71" class="key trans"/>
<text x="0" y="0" class="key trans tap">▽</text>
</g>
<g transform="translate(862, 47)" class="key trans keypos-7">
<rect rx="6" ry="6" x="-36" y="-36" width="71" height="71" class="key trans"/>
<text x="0" y="0" class="key trans tap">▽</text>
</g>
<g transform="translate(938, 38)" class="key trans keypos-8">
<rect rx="6" ry="6" x="-36" y="-36" width="71" height="71" class="key trans"/>
<text x="0" y="0" class="key trans tap">▽</text>
</g>
<g transform="translate(1012, 47)" class="key trans keypos-9">
<rect rx="6" ry="6" x="-36" y="-36" width="71" height="71" class="key trans"/>
<text x="0" y="0" class="key trans tap">▽</text>
</g>
<g transform="translate(1088, 84)" class="key trans keypos-10">
<rect rx="6" ry="6" x="-36" y="-36" width="71" height="71" class="key trans"/>
<text x="0" y="0" class="key trans tap">▽</text>
</g>
<g transform="translate(1162, 84)" class="key trans keypos-11">
<rect rx="6" ry="6" x="-36" y="-36" width="71" height="71" class="key trans"/>
<text x="0" y="0" class="key trans tap">▽</text>
</g>
<g transform="translate(38, 159)" class="key held keypos-12">
<rect rx="6" ry="6" x="-36" y="-36" width="71" height="71" class="key held"/>
</g>
<g transform="translate(112, 159)" class="key keypos-13">
<rect rx="6" ry="6" x="-36" y="-36" width="71" height="71" class="key"/>
<text x="0" y="0" class="key tap">INS</text>
</g>
<g transform="translate(188, 122)" class="key keypos-14">
<rect rx="6" ry="6" x="-36" y="-36" width="71" height="71" class="key"/>
<text x="0" y="0" class="key tap">PSCRN</text>
</g>
<g transform="translate(262, 112)" class="key keypos-15">
<rect rx="6" ry="6" x="-36" y="-36" width="71" height="71" class="key"/>
<text x="0" y="0" class="key tap">CMENU</text>
</g>
<g transform="translate(338, 122)" class="key trans keypos-16">
<rect rx="6" ry="6" x="-36" y="-36" width="71" height="71" class="key trans"/>
<text x="0" y="0" class="key trans tap">▽</text>
</g>
<g transform="translate(412, 131)" class="key trans keypos-17">
<rect rx="6" ry="6" x="-36" y="-36" width="71" height="71" class="key trans"/>
<text x="0" y="0" class="key trans tap">▽</text>
</g>
<g transform="translate(788, 131)" class="key keypos-18">
<rect rx="6" ry="6" x="-36" y="-36" width="71" height="71" class="key"/>
<text x="0" y="0" class="key tap">
<tspan x="0" dy="-0.6em">PG</tspan><tspan x="0" dy="1.2em">UP</tspan>
</text>
</g>
<g transform="translate(862, 122)" class="key trans keypos-19">
<rect rx="6" ry="6" x="-36" y="-36" width="71" height="71" class="key trans"/>
<text x="0" y="0" class="key trans tap">▽</text>
</g>
<g transform="translate(938, 112)" class="key trans keypos-20">
<rect rx="6" ry="6" x="-36" y="-36" width="71" height="71" class="key trans"/>
<text x="0" y="0" class="key trans tap">▽</text>
</g>
<g transform="translate(1012, 122)" class="key trans keypos-21">
<rect rx="6" ry="6" x="-36" y="-36" width="71" height="71" class="key trans"/>
<text x="0" y="0" class="key trans tap">▽</text>
</g>
<g transform="translate(1088, 159)" class="key keypos-22">
<rect rx="6" ry="6" x="-36" y="-36" width="71" height="71" class="key"/>
<text x="0" y="0" class="key tap">0</text>
</g>
<g transform="translate(1162, 159)" class="key trans keypos-23">
<rect rx="6" ry="6" x="-36" y="-36" width="71" height="71" class="key trans"/>
<text x="0" y="0" class="key trans tap">▽</text>
</g>
<g transform="translate(38, 234)" class="key trans keypos-24">
<rect rx="6" ry="6" x="-36" y="-36" width="71" height="71" class="key trans"/>
<text x="0" y="0" class="key trans tap">▽</text>
</g>
<g transform="translate(112, 234)" class="key keypos-25">
<rect rx="6" ry="6" x="-36" y="-36" width="71" height="71" class="key"/>
<text x="0" y="0" class="key tap">LALT</text>
</g>
<g transform="translate(188, 197)" class="key keypos-26">
<rect rx="6" ry="6" x="-36" y="-36" width="71" height="71" class="key"/>
<text x="0" y="0" class="key tap">LCTRL</text>
</g>
<g transform="translate(262, 188)" class="key keypos-27">
<rect rx="6" ry="6" x="-36" y="-36" width="71" height="71" class="key"/>
<text x="0" y="0" class="key tap">LSHFT</text>
</g>
<g transform="translate(338, 197)" class="key trans keypos-28">
<rect rx="6" ry="6" x="-36" y="-36" width="71" height="71" class="key trans"/>
<text x="0" y="0" class="key trans tap">▽</text>
</g>
<g transform="translate(412, 206)" class="key keypos-29">
<rect rx="6" ry="6" x="-36" y="-36" width="71" height="71" class="key"/>
<text x="0" y="0" class="key tap">CLCK</text>
</g>
<g transform="translate(788, 206)" class="key keypos-30">
<rect rx="6" ry="6" x="-36" y="-36" width="71" height="71" class="key"/>
<text x="0" y="0" class="key tap">LEFT</text>
</g>
<g transform="translate(862, 197)" class="key keypos-31">
<rect rx="6" ry="6" x="-36" y="-36" width="71" height="71" class="key"/>
<text x="0" y="0" class="key tap">DOWN</text>
</g>
<g transform="translate(938, 188)" class="key keypos-32">
<rect rx="6" ry="6" x="-36" y="-36" width="71" height="71" class="key"/>
<text x="0" y="0" class="key tap">UP</text>
</g>
<g transform="translate(1012, 197)" class="key keypos-33">
<rect rx="6" ry="6" x="-36" y="-36" width="71" height="71" class="key"/>
<text x="0" y="0" class="key tap">RIGHT</text>
</g>
<g transform="translate(1088, 234)" class="key keypos-34">
<rect rx="6" ry="6" x="-36" y="-36" width="71" height="71" class="key"/>
<text x="0" y="0" class="key tap">DEL</text>
</g>
<g transform="translate(1162, 234)" class="key keypos-35">
<rect rx="6" ry="6" x="-36" y="-36" width="71" height="71" class="key"/>
<text x="0" y="0" class="key tap">BSPC</text>
</g>
<g transform="translate(38, 309)" class="key trans keypos-36">
<rect rx="6" ry="6" x="-36" y="-36" width="71" height="71" class="key trans"/>
<text x="0" y="0" class="key trans tap">▽</text>
</g>
<g transform="translate(112, 309)" class="key keypos-37">
<rect rx="6" ry="6" x="-36" y="-36" width="71" height="71" class="key"/>
<text x="0" y="0" class="key tap">UNDO</text>
</g>
<g transform="translate(188, 272)" class="key keypos-38">
<rect rx="6" ry="6" x="-36" y="-36" width="71" height="71" class="key"/>
<text x="0" y="0" class="key tap">CUT</text>
</g>
<g transform="translate(262, 262)" class="key keypos-39">
<rect rx="6" ry="6" x="-36" y="-36" width="71" height="71" class="key"/>
<text x="0" y="0" class="key tap">COPY</text>
</g>
<g transform="translate(338, 272)" class="key keypos-40">
<rect rx="6" ry="6" x="-36" y="-36" width="71" height="71" class="key"/>
<text x="0" y="0" class="key tap">PASTE</text>
</g>
<g transform="translate(412, 281)" class="key trans keypos-41">
<rect rx="6" ry="6" x="-36" y="-36" width="71" height="71" class="key trans"/>
<text x="0" y="0" class="key trans tap">▽</text>
</g>
<g transform="translate(497, 281)" class="key trans keypos-42">
<rect rx="6" ry="6" x="-36" y="-36" width="71" height="71" class="key trans"/>
<text x="0" y="0" class="key trans tap">▽</text>
</g>
<g transform="translate(703, 281)" class="key trans keypos-43">
<rect rx="6" ry="6" x="-36" y="-36" width="71" height="71" class="key trans"/>
<text x="0" y="0" class="key trans tap">▽</text>
</g>
<g transform="translate(788, 281)" class="key trans keypos-44">
<rect rx="6" ry="6" x="-36" y="-36" width="71" height="71" class="key trans"/>
<text x="0" y="0" class="key trans tap">▽</text>
</g>
<g transform="translate(862, 272)" class="key trans keypos-45">
<rect rx="6" ry="6" x="-36" y="-36" width="71" height="71" class="key trans"/>
<text x="0" y="0" class="key trans tap">▽</text>
</g>
<g transform="translate(938, 262)" class="key trans keypos-46">
<rect rx="6" ry="6" x="-36" y="-36" width="71" height="71" class="key trans"/>
<text x="0" y="0" class="key trans tap">▽</text>
</g>
<g transform="translate(1012, 272)" class="key trans keypos-47">
<rect rx="6" ry="6" x="-36" y="-36" width="71" height="71" class="key trans"/>
<text x="0" y="0" class="key trans tap">▽</text>
</g>
<g transform="translate(1088, 309)" class="key trans keypos-48">
<rect rx="6" ry="6" x="-36" y="-36" width="71" height="71" class="key trans"/>
<text x="0" y="0" class="key trans tap">▽</text>
</g>
<g transform="translate(1162, 309)" class="key trans keypos-49">
<rect rx="6" ry="6" x="-36" y="-36" width="71" height="71" class="key trans"/>
<text x="0" y="0" class="key trans tap">▽</text>
</g>
<g transform="translate(188, 347)" class="key trans keypos-50">
<rect rx="6" ry="6" x="-36" y="-36" width="71" height="71" class="key trans"/>
<text x="0" y="0" class="key trans tap">▽</text>
</g>
<g transform="translate(262, 338)" class="key trans keypos-51">
<rect rx="6" ry="6" x="-36" y="-36" width="71" height="71" class="key trans"/>
<text x="0" y="0" class="key trans tap">▽</text>
</g>
<g transform="translate(338, 347)" class="key trans keypos-52">
<rect rx="6" ry="6" x="-36" y="-36" width="71" height="71" class="key trans"/>
<text x="0" y="0" class="key trans tap">▽</text>
</g>
<g transform="translate(424, 368) rotate(22.5)" class="key held keypos-53">
<rect rx="6" ry="6" x="-36" y="-36" width="71" height="71" class="key held"/>
</g>
<g transform="translate(506, 390) rotate(30.0)" class="key trans keypos-54">
<rect rx="6" ry="6" x="-36" y="-54" width="71" height="108" class="key trans"/>
<text x="0" y="0" class="key trans tap">▽</text>
</g>
<g transform="translate(694, 390) rotate(-30.0)" class="key trans keypos-55">
<rect rx="6" ry="6" x="-36" y="-54" width="71" height="108" class="key trans"/>
<text x="0" y="0" class="key trans tap">▽</text>
</g>
<g transform="translate(776, 368) rotate(-22.5)" class="key trans keypos-56">
<rect rx="6" ry="6" x="-36" y="-36" width="71" height="71" class="key trans"/>
<text x="0" y="0" class="key trans tap">▽</text>
</g>
<g transform="translate(862, 347)" class="key trans keypos-57">
<rect rx="6" ry="6" x="-36" y="-36" width="71" height="71" class="key trans"/>
<text x="0" y="0" class="key trans tap">▽</text>
</g>
<g transform="translate(938, 338)" class="key trans keypos-58">
<rect rx="6" ry="6" x="-36" y="-36" width="71" height="71" class="key trans"/>
<text x="0" y="0" class="key trans tap">▽</text>
</g>
<g transform="translate(1012, 347)" class="key trans keypos-59">
<rect rx="6" ry="6" x="-36" y="-36" width="71" height="71" class="key trans"/>
<text x="0" y="0" class="key trans tap">▽</text>
</g>
</g>
</g>
</svg>
